<svg width="30" height="32" viewBox="0 0 30 32" fill="none" xmlns="http://www.w3.org/2000/svg">
<path d="M21.5031 31.5312H1.42605C1.07737 31.5312 0.794678 31.2486 0.794678 30.8999V1.10012C0.794678 0.751437 1.07737 0.46875 1.42605 0.46875H21.5031C22.8978 0.46875 24.0284 1.59944 24.0284 2.99419V29.0059C24.0284 30.4006 22.8978 31.5312 21.5031 31.5312Z" fill="#F18989"/>
<path d="M1.42605 0.46875C1.07737 0.46875 0.794678 0.751437 0.794678 1.10012V30.8999C0.794678 31.2486 1.07737 31.5313 1.42605 31.5313H3.95149V0.46875H1.42605Z" fill="#59B3F3"/>
<path d="M21.5033 0.46875H20.1143C21.509 0.46875 22.6396 1.59944 22.6396 2.99419V29.0059C22.6396 30.4006 21.5089 31.5312 20.1143 31.5312H21.5033C22.898 31.5312 24.0286 30.4006 24.0286 29.0059V2.99419C24.0286 1.59944 22.898 0.46875 21.5033 0.46875Z" fill="#EB5757"/>
<path d="M19.8616 4.38318V11.9594H7.2345V4.38318H19.8616Z" fill="#F9F6F9"/>
<path d="M28.8055 29.8056L27.9427 31.5312L27.0799 29.8056C26.8169 29.2796 26.6799 28.6996 26.6799 28.1115V4.38306H29.2053V28.1115C29.2054 28.6996 29.0685 29.2796 28.8055 29.8056Z" fill="#A0A7AC"/>
<path d="M28.1954 4.38306V28.1115C28.1954 28.6996 28.0584 29.2796 27.7954 29.8056L27.4377 30.5209L27.9428 31.5311L28.8056 29.8056C29.0686 29.2796 29.2056 28.6996 29.2056 28.1115V4.38306H28.1954Z" fill="#697477"/>
<path d="M26.6802 0.46875H29.2056V4.38312H26.6802V0.46875Z" fill="#59B3F3"/>
<path d="M28.1956 0.46875H29.2057V4.38312H28.1956V0.46875Z" fill="#59B3F3"/>
<path d="M9.2546 7.18787H17.841C18.0999 7.18787 18.3097 6.97799 18.3097 6.71912C18.3097 6.46024 18.0999 6.25037 17.841 6.25037H9.2546C8.99576 6.25037 8.78589 6.46024 8.78589 6.71912C8.78589 6.97799 8.99576 7.18787 9.2546 7.18787Z" fill="black"/>
<path d="M9.2546 10.0922H17.841C18.0999 10.0922 18.3097 9.88229 18.3097 9.62341C18.3097 9.36454 18.0999 9.15466 17.841 9.15466H9.2546C8.99576 9.15466 8.78589 9.36454 8.78589 9.62341C8.78589 9.88229 8.99576 10.0922 9.2546 10.0922Z" fill="black"/>
<path d="M16.7049 25.1278H10.3914C10.1325 25.1278 9.92261 25.3377 9.92261 25.5966C9.92261 25.8554 10.1325 26.0653 10.3914 26.0653H16.7049C16.9637 26.0653 17.1736 25.8554 17.1736 25.5966C17.1736 25.3377 16.9638 25.1278 16.7049 25.1278Z" fill="black"/>
<path d="M16.7049 27.1481H10.3914C10.1325 27.1481 9.92261 27.3579 9.92261 27.6168C9.92261 27.8757 10.1325 28.0856 10.3914 28.0856H16.7049C16.9637 28.0856 17.1736 27.8757 17.1736 27.6168C17.1736 27.3579 16.9638 27.1481 16.7049 27.1481Z" fill="black"/>
<path d="M21.5031 0H1.42605C0.819428 0 0.325928 0.4935 0.325928 1.10012V8.5715C0.325928 8.83037 0.535798 9.04025 0.794678 9.04025C1.05355 9.04025 1.26343 8.83037 1.26343 8.5715V1.10012C1.26343 1.01044 1.33637 0.9375 1.42605 0.9375H3.48274V31.0625H1.42605C1.33637 31.0625 1.26343 30.9896 1.26343 30.8999V10.7603C1.26343 10.5014 1.05355 10.2916 0.794678 10.2916C0.535798 10.2916 0.325928 10.5014 0.325928 10.7603V30.8999C0.325928 31.5065 0.819428 32 1.42605 32H21.5031C23.1541 32 24.4972 30.6568 24.4972 29.0058V25.3039C24.4972 25.0451 24.2873 24.8352 24.0284 24.8352C23.7696 24.8352 23.5597 25.0451 23.5597 25.3039V29.0058C23.5597 30.1399 22.6371 31.0625 21.5031 31.0625H4.42024V0.9375H21.5031C22.6371 0.9375 23.5597 1.86013 23.5597 2.99419V23.1161C23.5597 23.3749 23.7696 23.5848 24.0284 23.5848C24.2873 23.5848 24.4972 23.3749 24.4972 23.1161V2.99419C24.4972 1.34319 23.154 0 21.5031 0Z" fill="black"/>
<path d="M20.3302 11.9594V4.38318C20.3302 4.1243 20.1203 3.91443 19.8614 3.91443H7.23438C6.9755 3.91443 6.76562 4.1243 6.76562 4.38318V11.9594C6.76562 12.2183 6.9755 12.4282 7.23438 12.4282H19.8614C20.1203 12.4282 20.3302 12.2183 20.3302 11.9594ZM19.3927 11.4907H7.70312V4.85193H19.3927V11.4907Z" fill="black"/>
<path d="M29.2056 0H26.6802C26.4213 0 26.2114 0.209875 26.2114 0.46875V4.38312V28.1116C26.2114 28.7691 26.3668 29.4273 26.6609 30.0153L27.5237 31.7409C27.6031 31.8997 27.7654 32 27.9429 32C28.1205 32 28.2828 31.8997 28.3622 31.7409L29.2249 30.0153C29.519 29.4273 29.6744 28.769 29.6744 28.1116V10.0982C29.6744 9.83931 29.4645 9.62944 29.2056 9.62944C28.9467 9.62944 28.7369 9.83931 28.7369 10.0982V28.1116C28.7369 28.6242 28.6157 29.1375 28.3864 29.596L27.9429 30.483L27.4994 29.596C27.2701 29.1375 27.1489 28.6241 27.1489 28.1116V4.85187H28.7369V7.909C28.7369 8.16787 28.9467 8.37775 29.2056 8.37775C29.4645 8.37775 29.6744 8.16787 29.6744 7.909V0.46875C29.6744 0.209875 29.4645 0 29.2056 0ZM27.1489 3.91438V0.9375H28.7369V3.91438H27.1489Z" fill="black"/>
</svg>
